<svg xmlns="http://www.w3.org/2000/svg" xmlns:xlink="http://www.w3.org/1999/xlink" width="256" zoomAndPan="magnify" viewBox="0 0 192 191.999996" height="256" preserveAspectRatio="xMidYMid meet" version="1.0"><defs><clipPath id="687d0f8912"><path d="M 106 86 L 154 86 L 154 179.945312 L 106 179.945312 Z M 106 86 " clip-rule="nonzero"/></clipPath><clipPath id="128ea6a399"><path d="M 24.269531 176.390625 L 167.519531 176.390625 L 167.519531 179.863281 L 24.269531 179.863281 Z M 24.269531 176.390625 " clip-rule="nonzero"/></clipPath><clipPath id="7e8226fca3"><path d="M 102 26.195312 L 114 26.195312 L 114 37 L 102 37 Z M 102 26.195312 " clip-rule="nonzero"/></clipPath></defs><path fill="#ffcc99" d="M 84.941406 123.683594 C 84.71875 124.15625 84.980469 124.714844 85.488281 124.847656 L 87.707031 126.886719 L 91.289062 129.003906 L 92.820312 132.710938 L 89.40625 132.503906 L 78.425781 131.460938 L 76.742188 131.300781 L 76.742188 117.171875 L 81.488281 113.921875 L 81.488281 113.917969 C 81.789062 111.5 82.339844 109.125 83.128906 106.828125 C 83.917969 104.535156 84.945312 102.324219 86.203125 100.234375 L 88.71875 96.039062 C 88.738281 96.011719 88.722656 95.972656 88.691406 95.960938 L 82.710938 93.96875 C 81.792969 93.664062 80.859375 93.40625 79.914062 93.207031 L 79.738281 93.167969 L 79.355469 93.085938 L 74.613281 92.074219 L 74.613281 92.070312 L 74.367188 92.015625 L 71.441406 91.390625 L 67.90625 79.734375 L 78.855469 78.324219 C 78.859375 78.324219 78.859375 78.324219 78.859375 78.324219 L 78.894531 78.335938 L 87.648438 81.582031 C 87.671875 81.589844 87.6875 81.601562 87.707031 81.613281 C 91.972656 83.714844 95.757812 86.710938 98.800781 90.410156 L 99.542969 91.3125 C 100.28125 92.214844 100.394531 93.472656 99.824219 94.484375 L 92.640625 107.285156 L 85.804688 121.847656 L 84.941406 123.683594 " fill-opacity="1" fill-rule="nonzero"/><path fill="#ff3399" d="M 92.820312 132.710938 L 89.40625 132.503906 L 78.425781 131.460938 L 76.742188 131.300781 L 76.742188 125.339844 L 79.832031 122.734375 C 79.832031 122.734375 84.167969 122.734375 85.402344 122.027344 C 85.535156 121.953125 85.671875 121.890625 85.804688 121.847656 L 84.941406 123.683594 C 84.757812 124.078125 84.90625 124.53125 85.257812 124.75 C 85.4375 124.863281 85.621094 124.972656 85.78125 125.117188 L 87.707031 126.886719 L 91.289062 129.003906 L 92.820312 132.710938 " fill-opacity="1" fill-rule="nonzero"/><g clip-path="url(#687d0f8912)"><path fill="#394a7b" d="M 153.457031 177.335938 L 148.96875 179.414062 L 106.878906 88.800781 L 111.363281 86.722656 L 153.457031 177.335938 " fill-opacity="1" fill-rule="nonzero"/></g><path fill="#394a7b" d="M 47.046875 178.273438 L 40.523438 177.59375 L 116.835938 106.582031 L 120.207031 110.199219 L 47.046875 178.273438 " fill-opacity="1" fill-rule="nonzero"/><path fill="#394a7b" d="M 88.867188 137.332031 L 70.34375 131.257812 C 69.410156 130.953125 68.902344 129.949219 69.207031 129.015625 L 70.585938 124.808594 C 70.894531 123.878906 71.898438 123.371094 72.832031 123.675781 L 91.355469 129.746094 C 92.289062 130.050781 92.796875 131.058594 92.488281 131.992188 L 91.109375 136.195312 C 90.804688 137.128906 89.800781 137.636719 88.867188 137.332031 " fill-opacity="1" fill-rule="nonzero"/><path fill="#330099" d="M 151.433594 144.566406 C 151.433594 156.105469 142.074219 165.460938 130.527344 165.460938 C 118.980469 165.460938 109.621094 156.105469 109.621094 144.566406 C 109.621094 133.023438 118.980469 123.667969 130.527344 123.667969 C 142.074219 123.667969 151.433594 133.023438 151.433594 144.566406 " fill-opacity="1" fill-rule="nonzero"/><path fill="#394a7b" d="M 138.289062 142.425781 C 140.34375 150.507812 102.496094 165.566406 91.304688 168.410156 C 80.113281 171.253906 69.375 167.007812 67.320312 158.925781 C 65.265625 150.847656 72.671875 141.988281 83.859375 139.144531 C 95.050781 136.300781 136.230469 134.34375 138.289062 142.425781 " fill-opacity="1" fill-rule="nonzero"/><path fill="#394a7b" d="M 77.820312 129.160156 L 72.371094 131.6875 L 54.8125 93.886719 L 60.261719 91.359375 L 77.820312 129.160156 " fill-opacity="1" fill-rule="nonzero"/><path fill="#ffcc99" d="M 108.582031 64 L 109.703125 70.316406 C 110.105469 72.589844 110.359375 74.890625 110.453125 77.203125 L 110.664062 82.207031 L 115.019531 81.261719 C 117.515625 80.71875 120.085938 80.578125 122.628906 80.839844 L 129.039062 81.503906 L 134.257812 80.460938 C 135.449219 80.21875 136.691406 80.410156 137.757812 80.992188 L 137.804688 81.019531 C 139.09375 81.71875 139.742188 83.203125 139.386719 84.621094 C 138.640625 85.113281 137.734375 85.316406 136.847656 85.191406 L 135.75 85.035156 L 121.261719 81.855469 L 110.308594 85.035156 L 104.300781 80.796875 L 107.835938 63.84375 L 108.582031 64 " fill-opacity="1" fill-rule="nonzero"/><path fill="#394a7b" d="M 61.898438 100.21875 L 49.597656 93.917969 C 47.082031 92.628906 46.390625 89.351562 48.167969 87.15625 L 49.222656 85.855469 C 50.542969 84.226562 52.929688 83.976562 54.558594 85.292969 L 64.242188 93.132812 L 61.898438 100.21875 " fill-opacity="1" fill-rule="nonzero"/><path fill="#394a7b" d="M 80.488281 172.695312 L 61.796875 166.566406 C 58.125 165.363281 56.125 161.417969 57.328125 157.75 L 58.121094 155.335938 C 59.324219 151.667969 63.277344 149.667969 66.945312 150.871094 L 85.640625 157 C 89.308594 158.203125 91.308594 162.152344 90.105469 165.820312 L 89.3125 168.234375 C 88.109375 171.902344 84.160156 173.898438 80.488281 172.695312 " fill-opacity="1" fill-rule="nonzero"/><g clip-path="url(#128ea6a399)"><path fill="#394a7b" d="M 165.941406 179.863281 L 25.859375 179.863281 C 24.980469 179.863281 24.269531 179.152344 24.269531 178.273438 C 24.269531 177.394531 24.980469 176.683594 25.859375 176.683594 L 165.941406 176.683594 C 166.820312 176.683594 167.53125 177.394531 167.53125 178.273438 C 167.53125 179.152344 166.820312 179.863281 165.941406 179.863281 " fill-opacity="1" fill-rule="nonzero"/></g><path fill="#394a7b" d="M 88.945312 133.417969 L 87.214844 131.867188 L 89.492188 129.320312 C 90.347656 128.367188 91.8125 128.285156 92.769531 129.140625 L 88.945312 133.417969 " fill-opacity="1" fill-rule="nonzero"/><path fill="#394a7b" d="M 144.695312 82.460938 L 110.367188 93.1875 L 109.007812 88.839844 L 143.335938 78.113281 C 144.265625 77.824219 145.257812 78.339844 145.546875 79.269531 L 145.851562 80.25 C 146.144531 81.179688 145.625 82.167969 144.695312 82.460938 " fill-opacity="1" fill-rule="nonzero"/><path fill="#ffcc99" d="M 138.101562 85.546875 L 138.058594 85.664062 C 137.886719 86.136719 137.613281 86.554688 137.265625 86.890625 C 136.914062 87.234375 136.484375 87.496094 136.011719 87.65625 C 135.757812 87.738281 135.496094 87.777344 135.238281 87.777344 C 134.484375 87.777344 133.746094 87.429688 133.277344 86.800781 L 127.976562 83.972656 L 114.851562 87.585938 C 114.179688 87.769531 113.5 87.921875 112.8125 88.035156 L 105.695312 89.265625 C 105.539062 89.292969 105.378906 89.304688 105.226562 89.304688 C 104.15625 89.304688 103.160156 88.6875 102.703125 87.691406 C 101.890625 85.933594 101.386719 84.046875 101.210938 82.121094 L 100.683594 76.324219 L 100.414062 73.378906 L 99.519531 74.398438 C 98.542969 75.519531 97.046875 76.035156 95.582031 75.761719 L 92.289062 75.144531 L 90.128906 76.105469 C 89.988281 76.171875 89.847656 76.230469 89.703125 76.285156 C 87.675781 77.125 85.5 77.546875 83.316406 77.546875 C 82.667969 77.546875 82.011719 77.511719 81.363281 77.433594 C 81.246094 77.417969 81.128906 77.414062 81.011719 77.414062 C 80.785156 77.414062 80.5625 77.4375 80.34375 77.488281 C 79.800781 77.613281 79.296875 77.886719 78.898438 78.289062 C 78.886719 78.300781 78.871094 78.308594 78.859375 78.324219 C 78.859375 78.324219 78.859375 78.324219 78.855469 78.324219 C 78.375 78.796875 77.800781 79.164062 77.171875 79.398438 C 75.996094 79.839844 75.046875 80.742188 74.550781 81.902344 L 73.023438 85.457031 C 72.472656 86.75 72.535156 88.226562 73.207031 89.464844 L 74.550781 91.949219 C 74.570312 91.992188 74.597656 92.027344 74.613281 92.070312 L 74.613281 92.074219 C 75.074219 92.921875 75.507812 93.777344 75.917969 94.648438 C 78.273438 99.589844 79.9375 104.832031 80.859375 110.242188 L 81.488281 113.917969 L 81.488281 113.921875 L 81.753906 115.488281 C 81.941406 116.59375 81.855469 117.730469 81.5 118.796875 L 80.628906 121.410156 C 80.628906 121.410156 79.433594 126.984375 78.425781 131.460938 C 77.789062 134.289062 77.230469 136.679688 77.09375 136.949219 C 76.917969 137.308594 76.378906 138.648438 75.890625 139.894531 C 75.285156 141.4375 74.972656 143.078125 74.972656 144.738281 L 74.972656 154.609375 L 77.800781 158.140625 L 79.691406 160.664062 C 80.546875 161.800781 81.5625 162.816406 82.699219 163.667969 L 84.921875 165.332031 C 85.671875 165.898438 85.519531 167.066406 84.644531 167.410156 L 83.882812 167.71875 C 83.378906 167.921875 82.820312 167.933594 82.304688 167.75 L 73.019531 164.453125 C 72.441406 164.25 71.839844 164.113281 71.226562 164.054688 L 66.738281 163.605469 C 66.238281 163.554688 65.78125 163.355469 65.410156 163.046875 C 65.042969 162.742188 64.761719 162.324219 64.625 161.839844 C 64.460938 161.269531 64.480469 160.667969 64.675781 160.109375 L 66.210938 155.761719 L 66.492188 154.960938 L 66.925781 139.476562 C 67.109375 132.882812 68.234375 126.351562 70.265625 120.074219 L 70.722656 118.652344 C 70.953125 117.941406 70.84375 117.167969 70.425781 116.546875 L 65.613281 109.417969 C 63.511719 106.296875 61.652344 103.023438 60.0625 99.621094 C 59.253906 97.894531 58.511719 96.136719 57.839844 94.347656 L 56.601562 91.039062 L 54.273438 83.175781 C 52.882812 78.464844 54.246094 73.367188 57.808594 69.976562 L 58.308594 69.5 C 59.042969 68.796875 59.929688 68.277344 60.890625 67.964844 L 70.007812 65.050781 L 71.105469 64.699219 C 75.011719 63.453125 78.644531 61.488281 81.828125 58.90625 C 81.875 58.875 81.917969 58.839844 81.960938 58.804688 L 84.894531 56.40625 C 87.441406 54.324219 90.398438 52.804688 93.570312 51.953125 L 97.941406 50.777344 L 100.660156 49.71875 C 101.964844 49.210938 103.097656 48.390625 103.972656 47.34375 C 104.648438 46.542969 105.171875 45.605469 105.5 44.585938 L 106.265625 42.203125 L 106.453125 41.625 L 114.550781 50.421875 L 114.152344 50.964844 C 113.839844 51.394531 113.503906 51.808594 113.140625 52.195312 C 112.59375 52.789062 111.996094 53.328125 111.351562 53.8125 C 110.804688 54.226562 110.226562 54.597656 109.621094 54.917969 C 109.097656 55.203125 108.558594 55.449219 108 55.65625 C 107.945312 55.683594 107.886719 55.699219 107.835938 55.71875 L 108.226562 57.75 C 108.507812 59.234375 108.648438 60.738281 108.648438 62.242188 C 108.648438 64.324219 108.378906 66.40625 107.835938 68.433594 L 108.449219 75.464844 C 108.511719 76.195312 108.519531 76.921875 108.464844 77.648438 L 108.191406 81.503906 L 109.886719 81.277344 C 111 81.128906 112.113281 81.054688 113.234375 81.054688 C 114.523438 81.054688 115.808594 81.152344 117.085938 81.347656 C 117.746094 81.449219 118.421875 81.46875 119.089844 81.402344 L 128.132812 80.53125 C 128.734375 80.472656 129.339844 80.476562 129.941406 80.539062 L 134.363281 81.003906 C 135.273438 81.101562 136.148438 81.414062 136.914062 81.921875 C 138.097656 82.714844 138.589844 84.207031 138.101562 85.546875 " fill-opacity="1" fill-rule="nonzero"/><path fill="#330099" d="M 109.621094 54.917969 C 109.097656 55.203125 108.558594 55.449219 108 55.65625 C 106.90625 54.433594 105.519531 52.871094 104.300781 51.480469 C 101.828125 48.65625 95.46875 51.480469 91.226562 56.78125 C 86.988281 62.078125 104.300781 66.316406 104.300781 66.316406 L 104.300781 73.027344 C 104.300781 73.027344 102.902344 74.796875 100.683594 76.324219 L 100.414062 73.378906 L 99.519531 74.398438 C 98.542969 75.519531 97.046875 76.035156 95.582031 75.761719 L 92.289062 75.144531 L 90.128906 76.105469 C 89.988281 76.171875 89.847656 76.230469 89.703125 76.285156 C 86.304688 72.421875 83.386719 64.132812 81.828125 58.90625 C 81.875 58.875 81.917969 58.839844 81.960938 58.804688 L 84.894531 56.40625 C 87.441406 54.324219 90.398438 52.804688 93.570312 51.953125 L 97.941406 50.777344 L 100.660156 49.71875 C 101.964844 49.210938 103.097656 48.390625 103.972656 47.34375 C 107.660156 49.164062 109.078125 52.496094 109.621094 54.917969 " fill-opacity="1" fill-rule="nonzero"/><path fill="#ffcc99" d="M 100.59375 76.382812 C 100.59375 76.382812 99.53125 65.078125 101.652344 62.960938 C 103.773438 60.839844 106.421875 64.195312 106.511719 70.113281 C 106.597656 76.027344 105.1875 79.914062 100.59375 76.382812 " fill-opacity="1" fill-rule="nonzero"/><path fill="#330099" d="M 80.34375 77.488281 C 74.964844 74.957031 71.796875 69.476562 70.007812 65.050781 L 60.890625 67.964844 C 59.929688 68.277344 59.042969 68.796875 58.308594 69.5 L 57.808594 69.976562 C 54.246094 73.367188 52.882812 78.464844 54.273438 83.175781 L 56.601562 91.039062 L 57.839844 94.347656 C 58.511719 96.136719 59.253906 97.894531 60.0625 99.621094 C 64.949219 95.246094 71.773438 94.582031 75.917969 94.648438 C 75.507812 93.777344 75.074219 92.921875 74.613281 92.074219 L 80.34375 77.488281 " fill-opacity="1" fill-rule="nonzero"/><path fill="#ff3399" d="M 84.644531 167.410156 L 83.882812 167.71875 C 83.378906 167.921875 82.820312 167.933594 82.304688 167.75 L 73.019531 164.453125 C 72.441406 164.25 71.839844 164.113281 71.226562 164.054688 L 66.738281 163.605469 C 66.238281 163.554688 65.78125 163.355469 65.410156 163.046875 C 65.042969 162.742188 64.761719 162.324219 64.625 161.839844 C 64.460938 161.269531 64.480469 160.667969 64.675781 160.109375 L 66.210938 155.761719 C 68.871094 157.023438 71.898438 157.8125 72.949219 155.609375 C 73.96875 153.472656 74.3125 151.277344 74.972656 150.046875 L 74.972656 154.609375 L 77.800781 158.140625 L 79.691406 160.664062 C 80.546875 161.800781 81.5625 162.816406 82.699219 163.667969 L 84.921875 165.332031 C 85.671875 165.898438 85.519531 167.066406 84.644531 167.410156 " fill-opacity="1" fill-rule="nonzero"/><path fill="#ff3399" d="M 87.707031 81.613281 C 86.554688 82.550781 79.585938 88.4375 79.738281 93.167969 L 79.355469 93.085938 L 74.613281 92.074219 L 74.613281 92.070312 L 74.367188 92.015625 C 73.535156 90.789062 71.964844 87.753906 73.8125 84.382812 C 76.109375 80.1875 79.167969 78.777344 80.238281 77.441406 L 87.648438 81.582031 C 87.671875 81.589844 87.6875 81.601562 87.707031 81.613281 " fill-opacity="1" fill-rule="nonzero"/><path fill="#394a7b" d="M 76.734375 170.585938 L 73.253906 168.136719 L 83.925781 152.984375 L 87.40625 155.433594 L 76.734375 170.585938 " fill-opacity="1" fill-rule="nonzero"/><path fill="#ffcc99" d="M 114.550781 50.421875 L 114.152344 50.964844 C 113.839844 51.394531 113.503906 51.808594 113.140625 52.195312 C 109.734375 49.492188 106.550781 45.25 106.265625 42.203125 L 106.453125 41.625 L 114.550781 50.421875 " fill-opacity="1" fill-rule="nonzero"/><path fill="#ffcc99" d="M 122.847656 48.066406 L 122.382812 48.066406 C 122.058594 50.945312 121.15625 53.25 118.789062 53.25 C 115.558594 53.25 110.476562 48.949219 107.886719 44.761719 C 107.648438 44.382812 107.4375 44.007812 107.246094 43.632812 L 107.246094 43.628906 C 106.894531 42.941406 106.625 42.265625 106.453125 41.625 L 106.449219 41.617188 C 106.316406 41.113281 106.246094 40.632812 106.246094 40.179688 C 106.246094 35.402344 109.886719 31.527344 114.375 31.527344 C 117.414062 31.527344 120.0625 33.304688 121.453125 35.941406 C 121.472656 35.964844 121.484375 35.984375 121.492188 36.011719 C 121.503906 36.027344 121.511719 36.042969 121.519531 36.054688 C 121.523438 36.066406 121.523438 36.074219 121.527344 36.078125 C 121.664062 36.347656 121.785156 36.621094 121.894531 36.902344 C 122.285156 37.914062 122.5 39.023438 122.5 40.179688 C 122.5 41.539062 122.5625 43.175781 122.550781 44.828125 L 123.601562 46.8125 C 123.902344 47.382812 123.488281 48.066406 122.847656 48.066406 " fill-opacity="1" fill-rule="nonzero"/><path fill="#394a7b" d="M 121.894531 36.902344 C 117.488281 34.726562 114.535156 39.105469 113.246094 41.988281 C 112.730469 40.792969 111.871094 40.042969 111.195312 40.253906 C 110.421875 40.492188 110.175781 41.90625 110.644531 43.402344 C 110.753906 43.746094 110.890625 44.0625 111.042969 44.34375 C 109.550781 44.960938 107.886719 44.761719 107.886719 44.761719 C 107.648438 44.382812 107.4375 44.007812 107.246094 43.632812 L 107.246094 43.628906 C 106.894531 42.941406 106.625 42.265625 106.453125 41.625 L 106.449219 41.617188 C 106.316406 41.113281 106.246094 40.632812 106.246094 40.179688 C 106.246094 35.402344 109.886719 31.527344 114.375 31.527344 C 117.414062 31.527344 120.0625 33.304688 121.453125 35.941406 C 121.472656 35.964844 121.484375 35.984375 121.492188 36.011719 C 121.503906 36.027344 121.511719 36.042969 121.519531 36.054688 C 121.523438 36.066406 121.523438 36.074219 121.527344 36.078125 C 121.664062 36.347656 121.785156 36.621094 121.894531 36.902344 " fill-opacity="1" fill-rule="nonzero"/><g clip-path="url(#7e8226fca3)"><path fill="#394a7b" d="M 113.195312 31.527344 C 113.195312 34.421875 110.847656 36.765625 107.953125 36.765625 C 105.058594 36.765625 102.710938 34.421875 102.710938 31.527344 C 102.710938 28.636719 105.058594 26.289062 107.953125 26.289062 C 110.847656 26.289062 113.195312 28.636719 113.195312 31.527344 " fill-opacity="1" fill-rule="nonzero"/></g></svg>