<svg xmlns="http://www.w3.org/2000/svg" xmlns:xlink="http://www.w3.org/1999/xlink" width="40" zoomAndPan="magnify" viewBox="0 0 30 30.000001" height="40" preserveAspectRatio="xMidYMid meet" version="1.0"><defs><clipPath id="28561a7c1d"><path d="M 10 1.851562 L 12 1.851562 L 12 3 L 10 3 Z M 10 1.851562 " clip-rule="nonzero"/></clipPath><clipPath id="a36bbe36be"><path d="M 9 25 L 13 25 L 13 27.253906 L 9 27.253906 Z M 9 25 " clip-rule="nonzero"/></clipPath><clipPath id="cae5a3a892"><path d="M 8.96875 2 L 10 2 L 10 4 L 8.96875 4 Z M 8.96875 2 " clip-rule="nonzero"/></clipPath><clipPath id="b6b15b5437"><path d="M 8.96875 3 L 10 3 L 10 5 L 8.96875 5 Z M 8.96875 3 " clip-rule="nonzero"/></clipPath><clipPath id="fc78afd7f2"><path d="M 20 5 L 21.023438 5 L 21.023438 7 L 20 7 Z M 20 5 " clip-rule="nonzero"/></clipPath><clipPath id="4816ac6f2b"><path d="M 19 6 L 21.023438 6 L 21.023438 8 L 19 8 Z M 19 6 " clip-rule="nonzero"/></clipPath></defs><path fill="#233264" d="M 11.105469 3.417969 L 11.554688 3.128906 L 11.796875 2.753906 L 11.34375 3.046875 Z M 11.105469 3.417969 " fill-opacity="1" fill-rule="nonzero"/><path fill="#233264" d="M 11.34375 3.046875 L 11.796875 2.753906 L 11.503906 2.117188 L 11.050781 2.40625 Z M 11.34375 3.046875 " fill-opacity="1" fill-rule="nonzero"/><g clip-path="url(#28561a7c1d)"><path fill="#233264" d="M 11.050781 2.40625 L 11.503906 2.117188 L 10.96875 1.851562 L 10.515625 2.140625 Z M 11.050781 2.40625 " fill-opacity="1" fill-rule="nonzero"/></g><path fill="#394673" d="M 10.515625 2.140625 L 10.277344 2.511719 L 10.570312 3.152344 L 11.105469 3.417969 L 11.34375 3.046875 L 11.050781 2.40625 Z M 10.515625 2.140625 " fill-opacity="1" fill-rule="nonzero"/><path fill="#959ebd" d="M 10.734375 2.683594 C 10.785156 2.660156 10.867188 2.71875 10.882812 2.78125 C 10.894531 2.828125 10.894531 2.859375 10.867188 2.882812 L 9.460938 3.789062 L 9.300781 3.609375 Z M 10.734375 2.683594 " fill-opacity="1" fill-rule="nonzero"/><path fill="#432918" d="M 11.625 5.433594 C 11.625 5.433594 11.808594 6.050781 11.164062 7.050781 C 10.519531 8.050781 11.171875 8.074219 11.277344 8.480469 C 11.378906 8.882812 11.164062 9.433594 10.882812 9.515625 C 10.601562 9.597656 10.261719 9.027344 10.261719 9.027344 C 10.261719 9.027344 9.824219 8.433594 10.070312 7.695312 C 10.3125 6.957031 10.585938 6.789062 10.507812 6.347656 C 10.433594 5.910156 10.554688 4.8125 11.597656 5.085938 C 12.644531 5.359375 11.648438 5.382812 11.648438 5.382812 " fill-opacity="1" fill-rule="nonzero"/><path fill="#f2908e" d="M 13.15625 8.445312 C 13.15625 8.445312 12.3125 8.84375 12.863281 9.78125 C 13.199219 10.359375 15.03125 9.246094 16.546875 8.636719 C 16.546875 8.636719 16.550781 7.527344 16.050781 7.691406 C 15.066406 8.015625 13.597656 8.234375 13.15625 8.445312 Z M 13.15625 8.445312 " fill-opacity="1" fill-rule="nonzero"/><path fill="#f2908e" d="M 16.050781 7.691406 L 16.546875 8.636719 C 16.847656 8.523438 17.429688 8.210938 17.839844 7.917969 C 17.992188 7.808594 18.808594 7.046875 19.144531 6.75 L 19.023438 6.089844 C 18.308594 6.589844 17.96875 7.082031 16.050781 7.691406 Z M 16.050781 7.691406 " fill-opacity="1" fill-rule="nonzero"/><path fill="#f2908e" d="M 18.996094 6.339844 C 18.957031 5.992188 19.289062 5.628906 19.289062 5.628906 C 19.289062 5.628906 19.628906 5.109375 20 5.453125 C 20.375 5.796875 20.152344 6.210938 19.894531 6.390625 C 19.683594 6.542969 19.382812 6.65625 19.144531 6.75 C 19.023438 6.617188 19.109375 6.480469 18.996094 6.339844 Z M 18.996094 6.339844 " fill-opacity="1" fill-rule="nonzero"/><path fill="#233264" d="M 19.765625 4.960938 L 19.425781 4.550781 L 19.023438 4.351562 L 19.359375 4.761719 Z M 19.765625 4.960938 " fill-opacity="1" fill-rule="nonzero"/><path fill="#233264" d="M 19.359375 4.761719 L 19.023438 4.351562 L 18.402344 4.699219 L 18.742188 5.109375 Z M 19.359375 4.761719 " fill-opacity="1" fill-rule="nonzero"/><path fill="#233264" d="M 18.742188 5.109375 L 18.402344 4.699219 L 18.183594 5.246094 L 18.523438 5.660156 Z M 18.742188 5.109375 " fill-opacity="1" fill-rule="nonzero"/><path fill="#394673" d="M 18.523438 5.660156 L 18.925781 5.859375 L 19.546875 5.507812 L 19.765625 4.960938 L 19.359375 4.761719 L 18.742188 5.109375 Z M 18.523438 5.660156 " fill-opacity="1" fill-rule="nonzero"/><path fill="#959ebd" d="M 19.050781 5.394531 L 19.054688 5.394531 C 19.023438 5.34375 19.078125 5.261719 19.136719 5.238281 C 19.183594 5.222656 19.21875 5.222656 19.242188 5.246094 L 20.300781 6.53125 L 20.132812 6.703125 Z M 19.050781 5.394531 " fill-opacity="1" fill-rule="nonzero"/><path fill="#f2908e" d="M 19.035156 6.386719 C 18.960938 6.296875 19.003906 6.199219 18.925781 6.117188 C 18.949219 6.007812 18.925781 5.554688 19.285156 5.449219 C 19.558594 5.371094 19.832031 5.765625 19.75 5.839844 C 19.664062 5.910156 19.527344 5.871094 19.527344 5.871094 C 19.527344 5.871094 19.515625 6.367188 19.078125 6.382812 C 19.0625 6.382812 19.046875 6.386719 19.035156 6.386719 Z M 19.035156 6.386719 " fill-opacity="1" fill-rule="nonzero"/><path fill="#00a19a" d="M 12.574219 25.273438 C 12.882812 25.359375 13.070312 25.515625 13.503906 25.808594 C 13.9375 26.101562 14.375 26.035156 14.683594 25.933594 C 14.988281 25.835938 15.058594 25.691406 15.058594 25.691406 C 15.136719 25.597656 15.210938 25.230469 15.148438 25.078125 C 15.105469 24.972656 14.710938 24.894531 14.4375 24.828125 C 14.320312 24.800781 14.226562 24.773438 14.1875 24.75 C 14.066406 24.664062 13.667969 24.324219 13.667969 24.324219 C 13.667969 24.324219 13.246094 24.140625 13.027344 24.15625 C 12.828125 24.171875 12.570312 24.253906 12.464844 24.445312 C 12.453125 24.464844 12.445312 24.488281 12.4375 24.511719 C 12.363281 24.75 12.269531 25.1875 12.574219 25.273438 Z M 12.574219 25.273438 " fill-opacity="1" fill-rule="nonzero"/><path fill="#183143" d="M 13.347656 24.890625 C 13.3125 25.160156 13.769531 25.089844 13.769531 25.089844 C 13.6875 25.332031 13.957031 25.230469 13.957031 25.230469 C 14.117188 25.171875 14.3125 24.96875 14.4375 24.828125 C 14.320312 24.800781 14.226562 24.773438 14.1875 24.75 C 14.066406 24.664062 13.667969 24.324219 13.667969 24.324219 C 13.667969 24.324219 13.246094 24.140625 13.027344 24.15625 C 12.828125 24.171875 12.570312 24.253906 12.464844 24.445312 C 12.371094 24.820312 13.347656 24.890625 13.347656 24.890625 Z M 13.347656 24.890625 " fill-opacity="1" fill-rule="nonzero"/><path fill="#2f1b42" d="M 14.347656 16.6875 C 14.347656 16.6875 14.53125 19.15625 14.285156 19.53125 C 14.039062 19.90625 12.582031 19.917969 12.582031 19.625 C 12.578125 19.007812 12.199219 16.457031 12.199219 16.457031 Z M 14.347656 16.6875 " fill-opacity="1" fill-rule="nonzero"/><path fill="#2f1b42" d="M 12.222656 17.027344 C 12.265625 17.855469 12.480469 18.59375 12.507812 18.742188 C 12.511719 18.765625 12.507812 18.742188 12.507812 18.742188 C 13.230469 19.292969 14.425781 18.769531 14.425781 18.769531 C 14.828125 16.339844 14.71875 15.476562 14.503906 14.503906 C 14.1875 13.0625 12.5 13.269531 12.277344 15.039062 C 12.1875 15.726562 12.1875 16.429688 12.222656 17.027344 Z M 12.222656 17.027344 " fill-opacity="1" fill-rule="nonzero"/><path fill="#2f1b42" d="M 14.078125 18.964844 C 14.078125 18.964844 14.382812 19.242188 14.34375 19.78125 C 14.304688 20.320312 13.902344 20.558594 13.726562 20.546875 C 13.554688 20.53125 12.566406 20.039062 12.570312 19.546875 C 12.578125 19.050781 14.078125 18.964844 14.078125 18.964844 Z M 14.078125 18.964844 " fill-opacity="1" fill-rule="nonzero"/><path fill="#2f1b42" d="M 14.21875 19.992188 C 14.21875 19.992188 13.90625 21.359375 13.765625 21.921875 C 13.601562 22.597656 13.585938 24.230469 13.589844 24.402344 C 13.597656 24.570312 13.035156 24.921875 12.695312 24.417969 C 12.695312 24.417969 12.691406 24.328125 12.679688 24.195312 C 12.65625 23.890625 12.640625 23.289062 12.589844 22.984375 C 12.464844 22.242188 12.234375 21.953125 12.199219 21.160156 C 12.175781 20.597656 12.296875 20.210938 12.574219 19.546875 C 12.574219 19.546875 14.042969 19.710938 14.027344 19.785156 C 14.015625 19.859375 14.21875 19.992188 14.21875 19.992188 Z M 14.21875 19.992188 " fill-opacity="1" fill-rule="nonzero"/><g clip-path="url(#a36bbe36be)"><path fill="#00a19a" d="M 10.167969 26.429688 C 10.472656 26.515625 10.660156 26.671875 11.09375 26.964844 C 11.527344 27.257812 11.964844 27.191406 12.273438 27.089844 C 12.582031 26.992188 12.648438 26.847656 12.648438 26.847656 C 12.730469 26.753906 12.800781 26.386719 12.738281 26.234375 C 12.695312 26.128906 12.300781 26.050781 12.027344 25.984375 C 11.910156 25.957031 11.816406 25.929688 11.777344 25.90625 C 11.65625 25.820312 11.257812 25.480469 11.257812 25.480469 C 11.257812 25.480469 10.835938 25.296875 10.617188 25.3125 C 10.417969 25.328125 10.160156 25.410156 10.054688 25.601562 C 10.042969 25.621094 10.035156 25.644531 10.027344 25.664062 C 9.953125 25.90625 9.859375 26.34375 10.167969 26.429688 Z M 10.167969 26.429688 " fill-opacity="1" fill-rule="nonzero"/></g><path fill="#183143" d="M 10.9375 26.046875 C 10.902344 26.316406 11.359375 26.242188 11.359375 26.242188 C 11.277344 26.488281 11.546875 26.386719 11.546875 26.386719 C 11.707031 26.328125 11.902344 26.125 12.027344 25.984375 C 11.910156 25.957031 11.816406 25.929688 11.777344 25.90625 C 11.65625 25.820312 11.257812 25.480469 11.257812 25.480469 C 11.257812 25.480469 10.835938 25.296875 10.617188 25.3125 C 10.417969 25.328125 10.160156 25.410156 10.058594 25.601562 C 10.054688 25.601562 10.054688 25.601562 10.054688 25.601562 C 9.964844 25.976562 10.9375 26.046875 10.9375 26.046875 Z M 10.9375 26.046875 " fill-opacity="1" fill-rule="nonzero"/><path fill="#2f1b42" d="M 12.078125 17.886719 C 12.078125 17.886719 12.054688 19.832031 11.875 20.6875 C 11.785156 21.125 10.027344 20.980469 10.054688 20.6875 C 10.230469 18.769531 9.976562 17.519531 9.976562 17.519531 Z M 12.078125 17.886719 " fill-opacity="1" fill-rule="nonzero"/><path fill="#2f1b42" d="M 12.527344 14.214844 C 12.527344 14.214844 12.476562 16.816406 12.027344 19.242188 C 12.027344 19.242188 11.046875 19.554688 10.117188 19.296875 C 10.117188 19.296875 9.988281 18.367188 9.804688 17.179688 C 9.714844 16.59375 9.796875 15.640625 10.277344 14.445312 C 10.683594 13.429688 12.527344 14.214844 12.527344 14.214844 Z M 12.527344 14.214844 " fill-opacity="1" fill-rule="nonzero"/><path fill="#2f1b42" d="M 11.667969 20.121094 C 11.667969 20.121094 11.898438 20.375 11.859375 20.910156 C 11.824219 21.449219 11.492188 21.714844 11.316406 21.703125 C 11.144531 21.6875 10.046875 21.183594 10.054688 20.6875 C 10.0625 20.195312 11.667969 20.121094 11.667969 20.121094 Z M 11.667969 20.121094 " fill-opacity="1" fill-rule="nonzero"/><path fill="#2f1b42" d="M 11.757812 21.039062 C 11.757812 21.039062 11.398438 22.457031 11.3125 23.027344 C 11.230469 23.601562 11.175781 25.386719 11.179688 25.558594 C 11.1875 25.726562 10.625 26.078125 10.285156 25.574219 C 10.285156 25.574219 10.28125 25.484375 10.273438 25.351562 C 10.25 25.046875 10.164062 23.964844 10.050781 23.675781 C 9.953125 23.433594 9.734375 22.695312 9.71875 22.492188 C 9.675781 21.929688 9.953125 18.996094 11.617188 20.941406 C 11.667969 21 11.757812 21.039062 11.757812 21.039062 Z M 11.757812 21.039062 " fill-opacity="1" fill-rule="nonzero"/><path fill="#e30613" d="M 10.332031 14.328125 C 10.453125 14.386719 11.203125 14.757812 11.804688 14.789062 C 13.417969 14.863281 14.441406 14.183594 14.441406 14.183594 C 14.394531 13.972656 13.691406 12.804688 14.113281 11.585938 C 14.273438 11.117188 14.332031 11.117188 14.558594 10.707031 C 14.890625 10.109375 13.671875 8.429688 13.277344 8.195312 L 13.007812 8.0625 C 12.269531 7.976562 12.054688 8.039062 11.277344 8.339844 C 10.765625 8.539062 10.359375 8.910156 10.148438 9.1875 C 9.761719 9.695312 10.902344 11.695312 10.964844 12.472656 C 11.027344 13.253906 10.332031 14.328125 10.332031 14.328125 Z M 10.332031 14.328125 " fill-opacity="1" fill-rule="nonzero"/><path fill="#f2908e" d="M 10.070312 10.566406 C 10.5625 10.917969 10.738281 11.882812 11.164062 11.410156 C 11.789062 10.714844 10.835938 8.828125 10.835938 8.828125 C 10.835938 8.828125 10.453125 8.921875 10.363281 8.90625 C 10.304688 8.894531 10.390625 9.132812 10.191406 9.277344 C 10.160156 9.824219 9.839844 9.773438 10.070312 10.566406 Z M 10.070312 10.566406 " fill-opacity="1" fill-rule="nonzero"/><path fill="#f5ac9f" d="M 10.949219 8.496094 C 11.140625 8.683594 11.277344 9.121094 11.9375 9.695312 C 12.507812 10.183594 13.359375 10.226562 13.53125 9.910156 C 13.664062 9.65625 13.851562 9.035156 12.949219 8.101562 C 12.210938 8.015625 11.726562 8.195312 10.949219 8.496094 Z M 10.949219 8.496094 " fill-opacity="1" fill-rule="nonzero"/><path fill="#f2908e" d="M 11.5 6.902344 C 11.5 6.902344 11.621094 7.453125 11.554688 8.230469 C 11.550781 8.269531 11.546875 8.308594 11.542969 8.339844 C 11.492188 8.621094 12.710938 8.925781 12.707031 8.328125 L 12.691406 7.726562 " fill-opacity="1" fill-rule="nonzero"/><path fill="#f5ac9f" d="M 11.183594 6.746094 C 11.277344 7.46875 11.988281 8.015625 12.828125 8.101562 C 12.921875 8.109375 13.417969 7.777344 13.566406 6.984375 C 13.582031 6.890625 13.4375 6.679688 13.449219 6.574219 C 13.585938 5.460938 13.121094 5.042969 12.5 5.035156 C 11.398438 5.027344 11.078125 5.925781 11.183594 6.746094 Z M 11.183594 6.746094 " fill-opacity="1" fill-rule="nonzero"/><path fill="#432918" d="M 11.234375 6.976562 C 11.234375 6.976562 11.175781 6.128906 11.679688 6.976562 C 11.679688 6.976562 11.710938 7.042969 11.695312 6.824219 C 11.683594 6.609375 11.667969 6.273438 11.875 5.964844 C 12.160156 5.535156 13.082031 5.382812 13.421875 5.695312 C 13.421875 5.695312 13.1875 4.511719 11.574219 4.9375 C 11.574219 4.9375 10.617188 5.3125 10.949219 6.46875 C 11.011719 6.675781 11.234375 6.976562 11.234375 6.976562 Z M 11.234375 6.976562 " fill-opacity="1" fill-rule="nonzero"/><path fill="#f5ac9f" d="M 9.761719 9.910156 C 9.761719 9.910156 9.816406 11.089844 10.703125 10.5625 C 11.28125 10.21875 11.292969 8.585938 11.371094 6.984375 C 11.371094 6.984375 10.34375 6.507812 10.285156 7.023438 C 10.171875 8.03125 9.75 9.433594 9.761719 9.910156 Z M 9.761719 9.910156 " fill-opacity="1" fill-rule="nonzero"/><path fill="#f5ac9f" d="M 10.285156 7.019531 L 11.371094 6.984375 C 11.394531 6.667969 11.351562 6.019531 11.253906 5.527344 C 11.21875 5.351562 10.859375 4.300781 10.730469 3.875 L 10.066406 3.703125 C 10.226562 4.550781 10.539062 5.0625 10.285156 7.019531 Z M 10.285156 7.019531 " fill-opacity="1" fill-rule="nonzero"/><path fill="#f5ac9f" d="M 10.285156 3.835938 C 9.945312 3.722656 9.753906 3.273438 9.753906 3.273438 C 9.753906 3.273438 9.417969 2.753906 9.894531 2.566406 C 10.367188 2.382812 10.65625 2.753906 10.714844 3.058594 C 10.765625 3.308594 10.746094 3.625 10.730469 3.875 C 10.554688 3.929688 10.460938 3.792969 10.285156 3.835938 Z M 10.285156 3.835938 " fill-opacity="1" fill-rule="nonzero"/><path fill="#f5ac9f" d="M 10.34375 3.820312 C 10.230469 3.847656 10.160156 3.769531 10.050781 3.800781 C 9.960938 3.734375 9.53125 3.5625 9.585938 3.203125 C 9.628906 2.925781 10.109375 2.847656 10.140625 2.953125 C 10.171875 3.058594 10.074219 3.164062 10.074219 3.164062 C 10.074219 3.164062 10.53125 3.382812 10.359375 3.78125 C 10.355469 3.796875 10.347656 3.808594 10.34375 3.820312 Z M 10.34375 3.820312 " fill-opacity="1" fill-rule="nonzero"/><path fill="#233264" d="M 9.527344 4.492188 L 9.976562 4.203125 L 10.21875 3.828125 L 9.769531 4.117188 Z M 9.527344 4.492188 " fill-opacity="1" fill-rule="nonzero"/><path fill="#233264" d="M 9.769531 4.117188 L 10.21875 3.828125 L 9.925781 3.191406 L 9.472656 3.480469 Z M 9.769531 4.117188 " fill-opacity="1" fill-rule="nonzero"/><g clip-path="url(#cae5a3a892)"><path fill="#233264" d="M 9.472656 3.480469 L 9.925781 3.191406 L 9.390625 2.921875 L 8.9375 3.210938 Z M 9.472656 3.480469 " fill-opacity="1" fill-rule="nonzero"/></g><g clip-path="url(#b6b15b5437)"><path fill="#394673" d="M 8.9375 3.210938 L 8.699219 3.585938 L 8.992188 4.226562 L 9.527344 4.492188 L 9.769531 4.117188 L 9.472656 3.480469 Z M 8.9375 3.210938 " fill-opacity="1" fill-rule="nonzero"/></g><g clip-path="url(#fc78afd7f2)"><path fill="#233264" d="M 21.007812 6.394531 L 20.667969 5.984375 L 20.265625 5.785156 L 20.605469 6.195312 Z M 21.007812 6.394531 " fill-opacity="1" fill-rule="nonzero"/></g><path fill="#233264" d="M 20.605469 6.195312 L 20.265625 5.785156 L 19.648438 6.132812 L 19.984375 6.546875 Z M 20.605469 6.195312 " fill-opacity="1" fill-rule="nonzero"/><path fill="#233264" d="M 19.984375 6.546875 L 19.648438 6.132812 L 19.429688 6.683594 L 19.765625 7.09375 Z M 19.984375 6.546875 " fill-opacity="1" fill-rule="nonzero"/><g clip-path="url(#4816ac6f2b)"><path fill="#394673" d="M 19.765625 7.09375 L 20.167969 7.292969 L 20.789062 6.945312 L 21.007812 6.394531 L 20.605469 6.195312 L 19.984375 6.546875 Z M 19.765625 7.09375 " fill-opacity="1" fill-rule="nonzero"/></g></svg>